<svg height="23px" href="https://itunes.apple.com/us/app/zoomcar-self-drive-cars/id889910218?mt=8&amp;utm_source=home%20page&amp;utm_medium=header%20links&amp;utm_content=iOS&amp;utm_campaign=installs" version="1.1" viewBox="0 0 23 28" width="23px" xmlns:xlink="http://www.w3.org/1999/xlink" xmlns="http://www.w3.org/2000/svg">
 
<title>3B94CFF3-F5F0-4741-BB85-3AF7FB39A0C7</title>
<desc>Created with sketchtool.</desc>
<defs></defs>
<g fill-rule="evenodd" fill="none" id="Home_arvind" stroke-width="1" stroke="none">
<g fill="#33414F" id="02_header" transform="translate(-827.000000, -154.000000)">
<g id="Group-2" transform="translate(827.000000, 154.000000)">
<g id="apple">
<g id="Layer_1">
<g id="XMLID_228_">
<path d="M1.25886056,10.2928918 C-1.10390837,14.4006295 0.39814741,20.6343475 3.01098406,24.4140721 C4.31520319,26.3037508 5.63564143,28 7.44421116,28 C7.4782988,28 7.51247809,27.9993574 7.54748207,27.9979803 C8.3971992,27.9640131 9.01123506,27.7019148 9.60492829,27.4486295 C10.2714701,27.1640393 10.9608287,26.8698098 12.0421036,26.8698098 C13.0707809,26.8698098 13.727243,27.1544918 14.3620797,27.429718 C14.987753,27.7009049 15.6322112,27.9814557 16.5844661,27.9635541 C18.6216614,27.9255475 19.8724582,26.0951738 20.976,24.4804459 C22.1275578,22.7944787 22.7052151,21.1575344 22.9001195,20.5319869 L22.908,20.5071082 C22.9451116,20.3959344 22.8926972,20.2745705 22.7863108,20.2256393 C22.7833785,20.2242623 22.7725657,20.2197639 22.7695418,20.2184787 C22.4107968,20.0715016 19.2639203,18.6728787 19.2308406,14.8608393 C19.2001434,11.7637639 21.5915936,10.1236984 22.0712032,9.82643934 L22.0935618,9.81248525 C22.1455179,9.77897705 22.1817131,9.72582295 22.193992,9.66504918 C22.2062709,9.60436721 22.1934422,9.54120656 22.1586215,9.49016393 C20.5079363,7.0700459 17.9779363,6.70531148 16.9593386,6.66142951 C16.8115339,6.64664918 16.6589641,6.63921311 16.505753,6.63921311 C15.3093865,6.63921311 14.1633267,7.09189508 13.2425936,7.45561967 C12.6070239,7.70670164 12.0580478,7.92354098 11.6794183,7.92354098 C11.2539641,7.92354098 10.7018725,7.70403934 10.0625458,7.44992787 C9.20760558,7.10998033 8.23858167,6.72477377 7.21274502,6.72477377 C7.18827888,6.72477377 7.16417928,6.72504918 7.14044622,6.7255082 C4.75522709,6.76066885 2.50141036,8.12780328 1.25886056,10.2928918 L1.25886056,10.2928918 Z" id="XMLID_229_"></path>
<path d="M16.9614462,0.000183606557 C15.5170279,0.0591213115 13.7843307,0.949888525 12.7486892,2.16518033 C11.8685498,3.18667541 11.008753,4.88980984 11.2352709,6.60653115 C11.2494741,6.71394098 11.3367092,6.79683934 11.4445618,6.80519344 C11.5420598,6.81281311 11.6415737,6.81666885 11.7407211,6.81676066 C13.1530677,6.81676066 14.6766574,6.0339541 15.7171554,4.77349508 C16.8122669,3.44253115 17.366008,1.73443934 17.198502,0.204445902 C17.1853068,0.0845508197 17.0800199,-0.00449836066 16.9614462,0.000183606557 L16.9614462,0.000183606557 Z" id="XMLID_230_"></path>
</g>
</g>
</g>
</g>
</g>
</g>
</svg>
