<?xml version="1.0" encoding="UTF-8"?>
<svg width="25px" height="25px" viewBox="0 0 25 25" version="1.1" xmlns="http://www.w3.org/2000/svg" xmlns:xlink="http://www.w3.org/1999/xlink">
    <!-- Generator: sketchtool 42 (36781) - http://www.bohemiancoding.com/sketch -->
    <title>64F7A4DA-6D52-4A18-B5F7-13DDC1F5F193</title>
    <desc>Created with sketchtool.</desc>
    <defs></defs>
    <g id="Footer" stroke="none" stroke-width="1" fill="none" fill-rule="evenodd">
        <g id="footer_V3" transform="translate(-367.000000, -613.000000)" fill-rule="nonzero">
            <g id="Group-4" transform="translate(246.000000, 613.000000)">
                <g id="blog" transform="translate(121.000000, 0.000000)">
                    <path d="M12.4708048,0 C19.3577911,0 24.9416952,5.58381849 24.9416952,12.4708904 C24.9416952,19.3579623 19.3578767,24.9416952 12.4708904,24.9416952 C5.58390411,24.9416952 0,19.3578767 0,12.4708904 C0,5.58390411 5.58304795,0 12.4708048,0 Z" id="Shape" fill="#8E969D"></path>
                    <path d="M18.6720034,11.414726 L18.5660103,11.1980308 L18.3906678,11.0608733 C18.1607021,10.8815925 16.9978596,11.0733733 16.6845034,10.7888699 C16.4623288,10.5854452 16.4273116,10.2183219 16.360274,9.72260274 C16.2355308,8.75924658 16.1560788,8.70933219 16.0056507,8.38433219 C15.4577055,7.22534247 13.972089,6.3547089 12.951113,6.23390411 L10.1857021,6.23390411 C8.01035959,6.23390411 6.23244863,8.00864726 6.23244863,10.1762842 L6.23244863,14.7733733 C6.23244863,16.9363014 8.01035959,18.7079623 10.1857021,18.7079623 L14.729024,18.7079623 C16.9052226,18.7079623 18.6721747,16.9370719 18.6838185,14.7733733 L18.7079623,11.588613 C18.7077911,11.5885274 18.6720034,11.414726 18.6720034,11.414726 Z M10.1520548,9.3577911 L12.452911,9.3577911 C12.8909247,9.3577911 13.2479452,9.7077911 13.2479452,10.1340753 C13.2479452,10.5589041 12.8917808,10.9119863 12.452911,10.9119863 L10.1520548,10.9119863 C9.71327055,10.9119863 9.35702055,10.5589041 9.35702055,10.1340753 C9.35702055,9.7077911 9.71327055,9.3577911 10.1520548,9.3577911 Z M14.8036815,15.5877568 L10.1489726,15.5877568 C9.71172945,15.5877568 9.35710616,15.2308219 9.35710616,14.8067637 C9.35710616,14.3765411 9.71172945,14.0265411 10.1489726,14.0265411 L14.8036815,14.0265411 C15.238613,14.0265411 15.5909247,14.3765411 15.5909247,14.8067637 C15.5909247,15.2308219 15.238613,15.5877568 14.8036815,15.5877568 Z" id="Shape" fill="#43505C"></path>
                </g>
            </g>
        </g>
    </g>
</svg>