<?xml version="1.0" encoding="UTF-8"?>
<svg width="32px" height="32px" viewBox="0 0 32 32" version="1.1" xmlns="http://www.w3.org/2000/svg" xmlns:xlink="http://www.w3.org/1999/xlink">
    <title>👀 Icons / cancellation</title>
    <g id="👀-Icons-/-cancellation" stroke="none" stroke-width="1" fill="none" fill-rule="evenodd">
        <path d="M7.92963248,11 C8.86582141,11 9.74419854,11.436691 10.3095263,12.1734739 L10.4257834,12.3358994 L13.8320503,17.4452998 L13.864,17.5 L15,17.5 C17.6887547,17.5 19.8818181,19.6223067 19.9953805,22.2831104 L20,22.5 L20,25.5 C20,26.0128358 19.6139598,26.4355072 19.1166211,26.4932723 L19,26.5 L15.8548109,26.5008388 C15.424268,27.9461522 14.0852037,29 12.5,29 C10.9147963,29 9.57573199,27.9461522 9.14518909,26.5008388 L4,26.5 C3.44771525,26.5 3,26.0522847 3,25.5 C3,24.9871642 3.38604019,24.5644928 3.88337887,24.5067277 L4,24.5 L9.14489094,24.5001626 C9.5751135,23.0543346 10.9144302,22 12.5,22 C14.0855698,22 15.4248865,23.0543346 15.8551091,24.5001626 L18,24.5 L18,22.5 C18,20.9023191 16.75108,19.5963391 15.1762728,19.5050927 L15,19.5 L4,19.5 C3.44771525,19.5 3,19.0522847 3,18.5 C3,17.9871642 3.38604019,17.5644928 3.88337887,17.5067277 L4,17.5 L11.464,17.5 L8.76168278,13.4452998 C8.59940022,13.201876 8.34006279,13.0435112 8.05377358,13.0077235 L7.92963248,13 L4,13 C3.44771525,13 3,12.5522847 3,12 C3,11.4871642 3.38604019,11.0644928 3.88337887,11.0067277 L4,11 L7.92963248,11 Z M12.5,24 C11.6715729,24 11,24.6715729 11,25.5 C11,26.3284271 11.6715729,27 12.5,27 C13.3284271,27 14,26.3284271 14,25.5 C14,24.6715729 13.3284271,24 12.5,24 Z M19.5059696,1.26603474 C25.1196888,1.26603474 29.6676035,5.8465208 29.6676035,11.4932827 C29.6676035,15.948822 26.8107221,19.8521087 22.6664342,21.2159224 C22.1418258,21.3885619 21.5765946,21.1032348 21.403955,20.5786264 C21.2313154,20.0540179 21.5166425,19.4887867 22.0412509,19.3161471 C25.369235,18.220965 27.6676035,15.0807607 27.6676035,11.4932827 C27.6676035,6.94790793 24.0119117,3.26603474 19.5059696,3.26603474 C15.8060377,3.26603474 12.5950657,5.77015654 11.6327066,9.31685899 C11.4880797,9.84987071 10.938745,10.1647188 10.4057333,10.0200919 C9.87272155,9.87546495 9.55787346,9.32613029 9.70250039,8.79311857 C10.8992963,4.38241657 14.8953539,1.26603474 19.5059696,1.26603474 Z M17.6128994,8.20970461 L17.7071068,8.29289322 L19.5,10.0850347 L21.2928932,8.29289322 C21.6834175,7.90236893 22.3165825,7.90236893 22.7071068,8.29289322 C23.0675907,8.65337718 23.0953203,9.22060824 22.7902954,9.61289944 L22.7071068,9.70710678 L20.915,11.5000347 L22.7071068,13.2928932 C23.0976311,13.6834175 23.0976311,14.3165825 22.7071068,14.7071068 C22.3466228,15.0675907 21.7793918,15.0953203 21.3871006,14.7902954 L21.2928932,14.7071068 L19.5,12.9150347 L17.7071068,14.7071068 C17.3165825,15.0976311 16.6834175,15.0976311 16.2928932,14.7071068 C15.9324093,14.3466228 15.9046797,13.7793918 16.2097046,13.3871006 L16.2928932,13.2928932 L18.085,11.5000347 L16.2928932,9.70710678 C15.9023689,9.31658249 15.9023689,8.68341751 16.2928932,8.29289322 C16.6533772,7.93240926 17.2206082,7.90467972 17.6128994,8.20970461 Z" id="Shape" fill="#10A310"></path>
    </g>
</svg>