<?xml version="1.0" encoding="UTF-8"?>
<svg width="32px" height="32px" viewBox="0 0 32 32" version="1.1" xmlns="http://www.w3.org/2000/svg" xmlns:xlink="http://www.w3.org/1999/xlink">
    <title>👀 Icons / delivery</title>
    <g id="👀-Icons-/-delivery" stroke="none" stroke-width="1" fill="none" fill-rule="evenodd">
        <g id="👀-Icons-/-delivery" fill="#10A310">
            <path d="M7.92963248,11 C8.86582141,11 9.74419854,11.436691 10.3095263,12.1734739 L10.4257834,12.3358994 L13.8320503,17.4452998 L13.864,17.5 L15,17.5 C17.6887547,17.5 19.8818181,19.6223067 19.9953805,22.2831104 L20,22.5 L20,25.5 C20,26.0128358 19.6139598,26.4355072 19.1166211,26.4932723 L19,26.5 L15.8548109,26.5008388 C15.424268,27.9461522 14.0852037,29 12.5,29 C10.9147963,29 9.57573199,27.9461522 9.14518909,26.5008388 L4,26.5 C3.44771525,26.5 3,26.0522847 3,25.5 C3,24.9871642 3.38604019,24.5644928 3.88337887,24.5067277 L4,24.5 L9.14489094,24.5001626 C9.5751135,23.0543346 10.9144302,22 12.5,22 C14.0855698,22 15.4248865,23.0543346 15.8551091,24.5001626 L18,24.5 L18,22.5 C18,20.9023191 16.75108,19.5963391 15.1762728,19.5050927 L15,19.5 L4,19.5 C3.44771525,19.5 3,19.0522847 3,18.5 C3,17.9871642 3.38604019,17.5644928 3.88337887,17.5067277 L4,17.5 L11.464,17.5 L8.76168278,13.4452998 C8.59940022,13.201876 8.34006279,13.0435112 8.05377358,13.0077235 L7.92963248,13 L4,13 C3.44771525,13 3,12.5522847 3,12 C3,11.4871642 3.38604019,11.0644928 3.88337887,11.0067277 L4,11 L7.92963248,11 Z M12.5,24 C11.6715729,24 11,24.6715729 11,25.5 C11,26.3284271 11.6715729,27 12.5,27 C13.3284271,27 14,26.3284271 14,25.5 C14,24.6715729 13.3284271,24 12.5,24 Z M21.5,3 C25.6421356,3 29,6.35786438 29,10.5 C29,12.3376483 27.9787693,14.623516 26.2721263,17.2095108 C25.1880106,18.8522195 23.7624452,20.6517684 23.2071068,21.2071068 C22.8165825,21.5976311 22.1834175,21.5976311 21.7928932,21.2071068 C21.4023689,20.8165825 21.4023689,20.1834175 21.7928932,19.7928932 C21.9227225,19.6630639 22.3439342,19.1690565 22.7864623,18.6104353 C23.4066934,17.8274925 24.0326941,16.9718434 24.6028737,16.1078774 C26.1061238,13.8300743 27,11.8292701 27,10.5 C27,7.46243388 24.5375661,5 21.5,5 C18.4624339,5 16,7.46243388 16,10.5 C16,11.5188553 16.2449884,12.4453848 16.9265255,14.123768 C17.1343127,14.6354739 16.8879379,15.2187383 16.376232,15.4265255 C15.8645261,15.6343127 15.2812617,15.3879379 15.0734745,14.876232 C14.3031778,12.9792656 14,11.8326675 14,10.5 C14,6.35786438 17.3578644,3 21.5,3 Z M21.5,7 C23.4329966,7 25,8.56700338 25,10.5 C25,12.4329966 23.4329966,14 21.5,14 C19.5670034,14 18,12.4329966 18,10.5 C18,8.56700338 19.5670034,7 21.5,7 Z M21.5,9 C20.6715729,9 20,9.67157288 20,10.5 C20,11.3284271 20.6715729,12 21.5,12 C22.3284271,12 23,11.3284271 23,10.5 C23,9.67157288 22.3284271,9 21.5,9 Z" id="Shape"></path>
        </g>
    </g>
</svg>