<?xml version="1.0" encoding="UTF-8"?>
<svg width="26px" height="25px" viewBox="0 0 26 25" version="1.1" xmlns="http://www.w3.org/2000/svg" xmlns:xlink="http://www.w3.org/1999/xlink">
    <!-- Generator: sketchtool 42 (36781) - http://www.bohemiancoding.com/sketch -->
    <title>8745150B-05AD-4C2A-B217-84BC1B8831D5</title>
    <desc>Created with sketchtool.</desc>
    <defs></defs>
    <g id="Footer" stroke="none" stroke-width="1" fill="none" fill-rule="evenodd" opacity="0.4">
        <g id="footer_V3" transform="translate(-246.000000, -613.000000)" fill="#FFFFFF">
            <g id="Group-4" transform="translate(246.000000, 613.000000)">
                <g id="facebook-logo-button" transform="translate(0.000000, 0.000000)">
                    <g id="Capa_1">
                        <path d="M12.5106383,0 C5.61230076,0 0,5.6075284 0,12.5 C0,19.3919681 5.61230076,25 12.5106383,25 C19.4084719,25 25.0212766,19.3919681 25.0212766,12.5 C25.0212766,5.6075284 19.4094798,0 12.5106383,0 L12.5106383,0 Z M15.6219201,12.9400628 L13.586535,12.9400628 L13.586535,20.188512 L10.5704966,20.188512 L10.5704966,12.9400628 L9.1368075,12.9400628 L9.1368075,10.3782325 L10.5704966,10.3782325 L10.5704966,8.72119955 C10.5704966,7.5344397 11.1349015,5.68003303 13.6142514,5.68003303 L15.8491938,5.6885926 L15.8491938,8.17540079 L14.2270338,8.17540079 C13.9629729,8.17540079 13.5875429,8.30731894 13.5875429,8.87325787 L13.5875429,10.378736 L15.885477,10.378736 L15.6219201,12.9400628 L15.6219201,12.9400628 Z" id="Shape"></path>
                    </g>
                </g>
            </g>
        </g>
    </g>
</svg>