<?xml version="1.0" encoding="UTF-8"?>
<svg width="166px" height="36px" viewBox="0 0 166 36" version="1.1" xmlns="http://www.w3.org/2000/svg" xmlns:xlink="http://www.w3.org/1999/xlink">
    <!-- Generator: Sketch 64 (93537) - https://sketch.com -->
    <title>logo-black</title>
    <desc>Created with Sketch.</desc>
    <g id="logo-black" stroke="none" stroke-width="1" fill="none" fill-rule="evenodd">
        <g id="logo-subscription">
            <path d="M17.954717,25.3132075 L9.03396226,34.2113208 C8.08301887,35.1849057 6.74716981,35.8188679 5.25283019,35.8188679 C2.35471698,35.8188679 -1.90070182e-12,33.4641509 -1.90070182e-12,30.5660377 C-1.90070182e-12,27.6679245 2.35471698,25.3132075 5.25283019,25.3132075 L17.954717,25.3132075 Z M24.2264151,25.3358491 C30.2943396,25.3358491 35.2754717,29.909434 35.8188679,35.8188679 L35.8188679,35.8188679 L8.26415094,35.8188679 C8.69433962,35.6830189 9.6,34.7773585 9.6,34.7773585 L9.6,34.7773585 L18.4981132,25.8792453 L19.0867925,25.3358491 Z M96.9056604,26.4679245 C97.245283,26.4679245 97.5396226,26.490566 97.8113208,26.5358491 C98.0830189,26.5811321 98.309434,26.6264151 98.5132075,26.6716981 C98.7169811,26.7169811 98.8754717,26.7849057 98.9886792,26.8301887 C99.1018868,26.8754717 99.1924528,26.9207547 99.2377358,26.9660377 L98.9207547,27.8037736 C98.8528302,27.7584906 98.7396226,27.7132075 98.6264151,27.6679245 C98.490566,27.6226415 98.354717,27.5773585 98.1735849,27.5320755 C98.0150943,27.4867925 97.8339623,27.4415094 97.6301887,27.4188679 C97.4264151,27.3962264 97.2226415,27.3735849 97.0415094,27.3735849 C96.6113208,27.3735849 96.2264151,27.4415094 95.8867925,27.5773585 C95.5471698,27.7132075 95.2528302,27.8943396 95.0264151,28.1433962 C94.7773585,28.3924528 94.5962264,28.6867925 94.4830189,29.0490566 C94.3471698,29.4113208 94.3018868,29.7962264 94.3018868,30.2490566 C94.3018868,30.6792453 94.3471698,31.0641509 94.4603774,31.4264151 C94.5735849,31.7886792 94.7320755,32.0830189 94.9584906,32.3320755 C95.1849057,32.5811321 95.4566038,32.7849057 95.7962264,32.9207547 C96.1358491,33.0566038 96.5207547,33.1245283 96.9735849,33.1245283 C97.4943396,33.1245283 97.9245283,33.0792453 98.2641509,32.9886792 C98.6037736,32.8981132 98.8528302,32.8075472 99.0339623,32.7396226 L99.3283019,33.5773585 C99.2830189,33.6226415 99.1698113,33.645283 99.0339623,33.7132075 C98.8981132,33.7584906 98.7169811,33.8264151 98.5132075,33.8716981 C98.309434,33.9169811 98.0603774,33.9622642 97.7886792,34.0075472 C97.4264151,33.9622642 97.1320755,33.9849057 96.8150943,33.9849057 C96.2490566,33.9849057 95.7283019,33.8943396 95.2754717,33.7358491 C94.8,33.5773585 94.4150943,33.3283019 94.0754717,33.0113208 C93.7358491,32.6943396 93.4867925,32.309434 93.3056604,31.8339623 C93.1245283,31.3584906 93.0339623,30.8377358 93.0339623,30.2264151 C93.0339623,29.6150943 93.1471698,29.0943396 93.3509434,28.6188679 C93.554717,28.1433962 93.8264151,27.7584906 94.1886792,27.4415094 C94.5283019,27.1245283 94.9358491,26.8754717 95.4113208,26.7169811 C95.8867925,26.5584906 96.3622642,26.4679245 96.9056604,26.4679245 Z M145.222642,26.4679245 C145.743396,26.4679245 146.241509,26.5358491 146.69434,26.7169811 C147.14717,26.8754717 147.554717,27.1018868 147.916981,27.4188679 C148.256604,27.7358491 148.550943,28.1207547 148.754717,28.5962264 C148.958491,29.0716981 149.071698,29.6150943 149.071698,30.2264151 C149.071698,30.8377358 148.958491,31.3811321 148.754717,31.8566038 C148.550943,32.3320755 148.279245,32.7169811 147.916981,33.0339623 C147.577358,33.3509434 147.169811,33.5773585 146.69434,33.7358491 C146.241509,33.8943396 145.743396,33.9849057 145.222642,33.9849057 C144.701887,33.9849057 144.203774,33.8943396 143.728302,33.7358491 C143.25283,33.5773585 142.845283,33.3509434 142.50566,33.0339623 C142.143396,32.7169811 141.871698,32.3320755 141.667925,31.8566038 C141.441509,31.3811321 141.350943,30.8377358 141.350943,30.2264151 C141.350943,29.6150943 141.464151,29.0716981 141.667925,28.5962264 C141.871698,28.1207547 142.143396,27.7358491 142.50566,27.4188679 C142.867925,27.1018868 143.275472,26.8754717 143.728302,26.7169811 C144.203774,26.5584906 144.701887,26.4679245 145.222642,26.4679245 Z M65.8188679,26.6490566 L65.8188679,31.0415094 C65.8188679,31.7660377 66,32.2867925 66.3622642,32.6037736 C66.7245283,32.9207547 67.1773585,33.1018868 67.7660377,33.1018868 C68.0603774,33.1018868 68.309434,33.0566038 68.5584906,32.9886792 C68.7849057,32.8981132 68.9886792,32.7849057 69.1698113,32.6264151 C69.3509434,32.4679245 69.4641509,32.2415094 69.554717,31.9924528 C69.645283,31.7433962 69.690566,31.4264151 69.690566,31.0641509 L69.690566,26.6716981 L70.8226415,26.6716981 L70.8226415,31.1773585 C70.8226415,31.5849057 70.754717,31.9471698 70.6415094,32.2867925 C70.5283019,32.6264151 70.3245283,32.9207547 70.0754717,33.1924528 C69.8264151,33.4641509 69.509434,33.645283 69.1245283,33.7811321 C68.7169811,33.9169811 68.2641509,33.9849057 67.7433962,33.9849057 C67.2226415,33.9849057 66.7698113,33.9169811 66.3622642,33.7584906 C65.9773585,33.6226415 65.6603774,33.4188679 65.4113208,33.1698113 C65.1622642,32.9207547 64.9811321,32.6264151 64.8679245,32.2641509 C64.754717,31.9245283 64.6867925,31.5396226 64.6867925,31.154717 L64.6867925,26.6490566 L65.8188679,26.6490566 Z M58.5283019,26.445283 C59.0264151,26.445283 59.4566038,26.490566 59.8641509,26.5811321 C60.2716981,26.6716981 60.5660377,26.7849057 60.7471698,26.8981132 L60.3849057,27.7132075 C60.2264151,27.6226415 59.9773585,27.5320755 59.6603774,27.4415094 C59.3433962,27.3509434 58.9584906,27.3056604 58.5283019,27.3056604 C58.3018868,27.3056604 58.1207547,27.3283019 57.9169811,27.3735849 C57.7358491,27.4188679 57.5773585,27.4867925 57.4188679,27.554717 C57.2830189,27.645283 57.1698113,27.7358491 57.0792453,27.8716981 C56.9886792,28.0075472 56.9660377,28.1433962 56.9660377,28.3245283 C56.9660377,28.5283019 57.0113208,28.6867925 57.1018868,28.8226415 C57.1924528,28.9584906 57.3056604,29.0716981 57.4641509,29.1622642 C57.6226415,29.2528302 57.8037736,29.3433962 58.0075472,29.4339623 C58.2113208,29.5245283 58.4377358,29.5924528 58.6867925,29.6830189 C59.0264151,29.7962264 59.3433962,29.9320755 59.6377358,30.045283 C59.9320755,30.1811321 60.1811321,30.3169811 60.3849057,30.4981132 C60.5886792,30.6792453 60.7698113,30.8830189 60.8830189,31.109434 C60.9962264,31.3584906 61.0641509,31.6301887 61.0641509,31.9698113 C61.0641509,32.6037736 60.8150943,33.0792453 60.2943396,33.4188679 C59.7735849,33.7584906 59.0490566,33.9169811 58.1207547,33.9169811 C57.8037736,33.9169811 57.509434,33.8943396 57.2377358,33.8490566 C56.9660377,33.8037736 56.7396226,33.7584906 56.5132075,33.7132075 C56.309434,33.6679245 56.1283019,33.6 55.9698113,33.554717 C55.8113208,33.509434 55.6981132,33.4415094 55.6075472,33.3962264 L55.9471698,32.5584906 C56.1283019,32.6490566 56.4,32.7396226 56.7622642,32.8528302 C57.1245283,33.0566038 57.5773585,33.1018868 58.0981132,33.1018868 C59.2754717,33.1018868 59.8641509,32.7396226 59.8641509,32.0150943 C59.8641509,31.7886792 59.8188679,31.6075472 59.7056604,31.4490566 C59.5924528,31.290566 59.4566038,31.154717 59.2754717,31.0415094 C59.0943396,30.9283019 58.890566,30.8377358 58.6641509,30.7471698 C58.4377358,30.6566038 58.1886792,30.5886792 57.9396226,30.4981132 C57.645283,30.4075472 57.3735849,30.3169811 57.1018868,30.1811321 C56.8301887,30.0679245 56.6037736,29.9320755 56.4226415,29.7735849 C56.2188679,29.6150943 56.0830189,29.4339623 55.9698113,29.2075472 C55.8566038,29.0037736 55.8113208,28.7320755 55.8113208,28.4377358 C55.8113208,27.8037736 56.0603774,27.3283019 56.5358491,26.9660377 C57.0113208,26.6037736 57.6679245,26.445283 58.5283019,26.445283 Z M87.1471698,26.445283 C87.645283,26.445283 88.0754717,26.490566 88.4830189,26.5811321 C88.890566,26.6716981 89.1849057,26.7849057 89.3660377,26.8981132 L89.0037736,27.7132075 C88.845283,27.6226415 88.5962264,27.5320755 88.2792453,27.4415094 C87.9622642,27.3509434 87.5773585,27.3056604 87.1471698,27.3056604 C86.9207547,27.3056604 86.7396226,27.3283019 86.5358491,27.3735849 C86.354717,27.4188679 86.1962264,27.4867925 86.0377358,27.554717 C85.9018868,27.645283 85.7886792,27.7358491 85.6981132,27.8716981 C85.6075472,28.0075472 85.5849057,28.1433962 85.5849057,28.3245283 C85.5849057,28.5283019 85.6301887,28.6867925 85.7207547,28.8226415 C85.8113208,28.9584906 85.9245283,29.0716981 86.0830189,29.1622642 C86.2415094,29.2528302 86.4226415,29.3433962 86.6264151,29.4339623 C86.8301887,29.5245283 87.0566038,29.5924528 87.3056604,29.6830189 C87.645283,29.7962264 87.9622642,29.9320755 88.2566038,30.045283 C88.5509434,30.1811321 88.8,30.3169811 89.0037736,30.4981132 C89.2075472,30.6792453 89.3886792,30.8830189 89.5018868,31.109434 C89.6150943,31.3584906 89.6830189,31.6301887 89.6830189,31.9698113 C89.6830189,32.6037736 89.4339623,33.0792453 88.9132075,33.4188679 C88.3924528,33.7584906 87.6679245,33.9169811 86.7396226,33.9169811 C86.4226415,33.9169811 86.1283019,33.8943396 85.8566038,33.8490566 C85.5849057,33.8037736 85.3584906,33.7584906 85.1320755,33.7132075 C84.9283019,33.6679245 84.7471698,33.6 84.5886792,33.554717 C84.4301887,33.4867925 84.3169811,33.4415094 84.2264151,33.3962264 L84.5660377,32.5584906 C84.7471698,32.6490566 85.0188679,32.7396226 85.3811321,32.8528302 C85.7433962,33.0566038 86.1962264,33.1018868 86.7169811,33.1018868 C87.8943396,33.1018868 88.4830189,32.7396226 88.4830189,32.0150943 C88.4830189,31.7886792 88.4377358,31.6075472 88.3245283,31.4490566 C88.2113208,31.290566 88.0754717,31.154717 87.8943396,31.0415094 C87.7132075,30.9283019 87.509434,30.8377358 87.2830189,30.7471698 C87.0566038,30.6566038 86.8075472,30.5886792 86.5584906,30.4981132 C86.2641509,30.4075472 85.9924528,30.3169811 85.7207547,30.1811321 C85.4490566,30.0679245 85.2226415,29.9320755 85.0415094,29.7735849 C84.8377358,29.6150943 84.7018868,29.4339623 84.5886792,29.2075472 C84.4754717,29.0037736 84.4301887,28.7320755 84.4301887,28.4377358 C84.4301887,27.8037736 84.6792453,27.3283019 85.154717,26.9660377 C85.6301887,26.6037736 86.2867925,26.445283 87.1471698,26.445283 Z M77.2301887,26.6037736 C77.7056604,26.6037736 78.1358491,26.6264151 78.5433962,26.6943396 C78.9509434,26.7622642 79.3132075,26.8528302 79.6075472,27.0113208 C79.9018868,27.1698113 80.1509434,27.3509434 80.309434,27.6 C80.490566,27.8490566 80.5584906,28.1433962 80.5584906,28.4830189 C80.5584906,28.8679245 80.445283,29.2075472 80.2415094,29.4566038 C80.0377358,29.7056604 79.7433962,29.8867925 79.4037736,30.0226415 C79.8792453,30.1358491 80.2415094,30.3396226 80.5358491,30.6113208 C80.8075472,30.8830189 80.9433962,31.2679245 80.9433962,31.7433962 C80.9433962,32.4679245 80.6490566,33.0113208 80.0603774,33.3735849 C79.4490566,33.7132075 78.5207547,33.8943396 77.2301887,33.8943396 L76.709434,33.8943396 L76.709434,33.8943396 C76.5283019,33.8943396 76.3245283,33.8716981 76.1433962,33.8716981 C75.9622642,33.8490566 75.7584906,33.8490566 75.5773585,33.8264151 C75.3962264,33.8037736 75.2150943,33.7811321 75.0566038,33.7358491 L75.0566038,26.7622642 C75.2150943,26.7169811 75.3735849,26.6943396 75.5773585,26.6716981 C75.7584906,26.6490566 75.9396226,26.6264151 76.1433962,26.6264151 C76.3245283,26.6037736 76.5283019,26.6037736 76.709434,26.6037736 L77.2301887,26.6037736 L77.2301887,26.6037736 Z M159.486792,26.6264151 L159.486792,33.8037736 L158.558491,33.8037736 L158.558491,33.8264151 C158.377358,33.5773585 158.196226,33.2830189 157.969811,32.9660377 C157.743396,32.6490566 157.516981,32.309434 157.245283,31.9698113 C157.079245,31.7433962 156.903145,31.5169811 156.72369,31.2838574 L156.45283,30.9283019 C156.181132,30.5660377 155.909434,30.2264151 155.637736,29.909434 C155.366038,29.5698113 155.09434,29.2754717 154.845283,28.9811321 C154.596226,28.6867925 154.34717,28.4377358 154.143396,28.2113208 L154.143396,33.8264151 L153.033962,33.8264151 L153.033962,26.6490566 L153.916981,26.6490566 C154.279245,26.9886792 154.664151,27.3962264 155.09434,27.8490566 C155.501887,28.3018868 155.909434,28.7773585 156.316981,29.2754717 C156.724528,29.7509434 157.109434,30.2490566 157.471698,30.7018868 C157.833962,31.1773585 158.128302,31.5849057 158.377358,31.9471698 L158.377358,26.6264151 L159.486792,26.6264151 Z M113.637736,26.6490566 L113.637736,33.8264151 L112.50566,33.8264151 L112.50566,26.6490566 L113.637736,26.6490566 Z M104.988679,26.5584906 C106.120755,26.5584906 106.981132,26.7396226 107.569811,27.1245283 C108.158491,27.509434 108.45283,28.0754717 108.45283,28.8226415 C108.45283,29.2981132 108.316981,29.7056604 108.022642,30.045283 C107.773585,30.4075472 107.366038,30.6566038 106.8,30.8150943 C106.913208,30.9509434 107.071698,31.1320755 107.275472,31.3584906 C107.456604,31.5849057 107.660377,31.8339623 107.864151,32.1056604 C108.067925,32.3773585 108.271698,32.6716981 108.45283,32.9660377 C108.656604,33.2603774 108.815094,33.554717 108.950943,33.8264151 L107.728302,33.8264151 C107.569811,33.554717 107.411321,33.3056604 107.230189,33.0339623 C107.049057,32.7622642 106.867925,32.5132075 106.686792,32.2641509 C106.50566,32.0150943 106.324528,31.7886792 106.143396,31.5849057 C105.962264,31.3811321 105.803774,31.1773585 105.645283,31.0188679 L103.992453,31.0188679 L103.992453,33.8264151 L102.860377,33.8264151 L102.860377,26.7396226 C103.177358,26.6716981 103.539623,26.6264151 103.924528,26.6037736 C104.309434,26.5811321 104.671698,26.5584906 104.988679,26.5584906 Z M137.343396,26.6490566 L137.343396,33.8264151 L136.211321,33.8264151 L136.211321,26.6490566 L137.343396,26.6490566 Z M132.724528,26.6490566 L132.724528,27.509434 L130.188679,27.509434 L130.188679,33.8264151 L129.056604,33.8264151 L129.056604,27.509434 L126.520755,27.509434 L126.520755,26.6490566 L132.724528,26.6490566 Z M120.090566,26.5584906 C121.222642,26.5584906 122.083019,26.7396226 122.69434,27.1245283 C123.30566,27.509434 123.6,28.0754717 123.6,28.845283 C123.6,29.2528302 123.509434,29.6150943 123.350943,29.909434 C123.192453,30.2037736 122.943396,30.4301887 122.626415,30.6339623 C122.309434,30.8150943 121.924528,30.9509434 121.471698,31.0415094 C121.018868,31.1320755 120.520755,31.154717 119.954717,31.154717 L119.049057,31.154717 L119.049057,33.8264151 L117.916981,33.8264151 L117.916981,26.7396226 C118.233962,26.6716981 118.596226,26.6264151 118.981132,26.6037736 C119.411321,26.5811321 119.750943,26.5584906 120.090566,26.5584906 Z M145.177358,27.3735849 C144.769811,27.3735849 144.407547,27.4415094 144.067925,27.5773585 C143.728302,27.7132075 143.456604,27.8943396 143.230189,28.1433962 C143.003774,28.3924528 142.822642,28.6867925 142.709434,29.0490566 C142.596226,29.3886792 142.528302,29.7962264 142.528302,30.2264151 C142.528302,30.6566038 142.596226,31.0641509 142.709434,31.4037736 C142.822642,31.7660377 143.003774,32.0603774 143.230189,32.309434 C143.456604,32.5584906 143.728302,32.7396226 144.067925,32.8754717 C144.407547,33.0113208 144.769811,33.0792453 145.177358,33.0792453 C145.584906,33.0792453 145.94717,33.0113208 146.286792,32.8754717 C146.603774,32.7396226 146.898113,32.5584906 147.124528,32.309434 C147.350943,32.0603774 147.532075,31.7660377 147.645283,31.4037736 C147.758491,31.0415094 147.826415,30.6566038 147.826415,30.2264151 C147.826415,29.7962264 147.758491,29.3886792 147.645283,29.0490566 C147.532075,28.6867925 147.350943,28.3924528 147.124528,28.1433962 C146.898113,27.8943396 146.626415,27.7132075 146.286792,27.5773585 C145.969811,27.4415094 145.584906,27.3735849 145.177358,27.3735849 Z M77.6377358,30.4754717 L76.1660377,30.4754717 L76.1660377,33.0113208 C76.2566038,33.0113208 76.3471698,33.0339623 76.4603774,33.0339623 C76.5509434,33.0339623 76.6867925,33.0566038 76.8226415,33.0566038 L77.2981132,33.0566038 L77.2981132,33.0566038 C77.6377358,33.0566038 77.954717,33.0339623 78.2490566,32.9886792 C78.5433962,32.9433962 78.8150943,32.8754717 79.0415094,32.7849057 C79.2679245,32.6943396 79.4490566,32.5584906 79.5849057,32.3773585 C79.7207547,32.1962264 79.7886792,31.9924528 79.7886792,31.7207547 C79.7886792,31.4943396 79.7433962,31.290566 79.6301887,31.1320755 C79.5396226,30.9735849 79.3811321,30.8377358 79.2,30.7471698 C79.0188679,30.6566038 78.7924528,30.5886792 78.5207547,30.5433962 C78.2490566,30.4981132 77.954717,30.4754717 77.6377358,30.4754717 Z M120.181132,27.4415094 C119.70566,27.4415094 119.343396,27.4415094 119.071698,27.4641509 L119.071698,30.2943396 L119.909434,30.2943396 C120.29434,30.2943396 120.633962,30.2716981 120.950943,30.2264151 C121.267925,30.1811321 121.516981,30.1132075 121.743396,30 C121.94717,29.8867925 122.128302,29.7509434 122.241509,29.5698113 C122.354717,29.3886792 122.422642,29.1396226 122.422642,28.845283 C122.422642,28.5735849 122.354717,28.3471698 122.241509,28.1660377 C122.128302,27.9849057 121.969811,27.8490566 121.743396,27.7358491 C121.539623,27.6226415 121.290566,27.554717 121.018868,27.509434 C120.769811,27.4641509 120.475472,27.4415094 120.181132,27.4415094 Z M105.101887,27.4415094 C104.626415,27.4415094 104.264151,27.4415094 103.992453,27.4641509 L103.992453,30.1584906 L104.784906,30.1584906 C105.169811,30.1584906 105.509434,30.1358491 105.826415,30.1132075 C106.143396,30.0679245 106.392453,30.0226415 106.618868,29.909434 C106.822642,29.8188679 107.003774,29.6830189 107.116981,29.5018868 C107.230189,29.3207547 107.298113,29.0943396 107.298113,28.8 C107.298113,28.5283019 107.230189,28.3018868 107.116981,28.1207547 C107.003774,27.9396226 106.845283,27.8037736 106.641509,27.690566 C106.437736,27.5773585 106.211321,27.509434 105.939623,27.4641509 C105.690566,27.4641509 105.396226,27.4415094 105.101887,27.4415094 Z M77.2528302,27.4188679 L76.5735849,27.4188679 L76.5735849,27.4188679 C76.4150943,27.4188679 76.2566038,27.4415094 76.1207547,27.4415094 L76.1207547,29.6603774 L77.3433962,29.6603774 C77.6150943,29.6603774 77.8867925,29.6377358 78.1358491,29.6150943 C78.3849057,29.5698113 78.5886792,29.5245283 78.7698113,29.4339623 C78.9509434,29.3433962 79.0867925,29.2301887 79.2,29.0716981 C79.3132075,28.9358491 79.3584906,28.754717 79.3584906,28.5283019 C79.3584906,28.3245283 79.3132075,28.1433962 79.2,28.0075472 C79.0867925,27.8716981 78.9509434,27.7584906 78.7471698,27.6679245 C78.5660377,27.5773585 78.3396226,27.509434 78.0679245,27.4867925 C77.8188679,27.4415094 77.5471698,27.4188679 77.2528302,27.4188679 Z M30.5207547,2.922107e-12 C33.4188679,2.922107e-12 35.7735849,2.35471698 35.7511053,5.25283019 C35.7511053,6.65660377 35.2075472,7.96981132 34.2113208,8.96603774 L34.2113208,8.96603774 L18.7245283,24.4075472 L5.25283019,24.4075472 C4.68679245,24.4075472 4.16603774,24.4981132 3.64528302,24.6339623 L3.64528302,24.6339623 L26.6264151,1.72075472 C27.6226415,0.633962264 29.0490566,2.922107e-12 30.5207547,2.922107e-12 Z M132.271698,5.63773585 C134.535849,5.66037736 136.437736,6.56603774 137.683019,8.19622642 L135.056604,10.3924528 C134.241509,9.50943396 133.358491,9.03396226 132.181132,9.03396226 C130.301887,9.03396226 128.784906,10.5056604 128.784906,12.7471698 C128.784906,15.0113208 130.279245,16.4603774 132.158491,16.4603774 C133.335849,16.4603774 134.332075,15.9396226 135.101887,15.1018868 L137.683019,17.3207547 C136.415094,18.9509434 134.513208,19.8566038 132.271698,19.8566038 C127.969811,19.8566038 125.071698,16.845283 125.071698,12.7471698 C125.071698,8.67169811 127.94717,5.63773585 132.271698,5.63773585 Z M145.064151,5.63773585 C146.920755,5.63773585 148.211321,6.38490566 149.09434,7.49433962 L149.09434,6 L152.649057,6 L152.649057,19.5169811 L150.498113,19.5169811 C149.728302,19.5169811 149.09434,18.8830189 149.09434,18.1132075 L149.09434,18.0226415 C148.211321,19.109434 146.898113,19.8566038 145.064151,19.8566038 C141.350943,19.8566038 138.520755,16.8 138.520755,12.7471698 C138.520755,8.69433962 141.328302,5.63773585 145.064151,5.63773585 Z M75.3283019,5.63773585 C79.5396226,5.66037736 82.6415094,8.69433962 82.6415094,12.7471698 C82.6415094,16.8226415 79.5396226,19.8566038 75.3283019,19.8566038 C71.1396226,19.8566038 68.0377358,16.8226415 68.0377358,12.7471698 C68.0377358,8.67169811 71.1396226,5.63773585 75.3283019,5.63773585 Z M91.4037736,5.63773585 C95.6150943,5.66037736 98.7169811,8.69433962 98.7169811,12.7471698 C98.7169811,16.8226415 95.6150943,19.8566038 91.4037736,19.8566038 C87.2150943,19.8566038 84.1132075,16.8226415 84.1132075,12.7471698 C84.1132075,8.67169811 87.2150943,5.63773585 91.4037736,5.63773585 Z M117.6,5.66037736 C120.74717,5.66037736 122.875472,7.78867925 122.875472,10.9132075 L122.875472,19.5169811 L120.679245,19.5169811 C119.909434,19.5169811 119.275472,18.8830189 119.275472,18.1132075 L119.275472,12.090566 C119.275472,10.1433962 118.279245,9.05660377 116.649057,9.05660377 C115.086792,9.05660377 113.796226,10.0754717 113.796226,12.1132075 L113.796226,19.5169811 L111.577358,19.5169811 C110.807547,19.5169811 110.173585,18.8830189 110.173585,18.1132075 L110.173585,12.090566 C110.173585,10.1433962 109.2,9.05660377 107.54717,9.05660377 C105.984906,9.05660377 104.69434,10.0754717 104.69434,12.1132075 L104.69434,19.5169811 L102.475472,19.5169811 C101.70566,19.5169811 101.071698,18.8830189 101.071698,18.1132075 L101.071698,6.02264151 L103.2,6.02264151 C103.969811,6.02264151 104.603774,6.65660377 104.603774,7.42641509 L104.603774,7.60754717 C105.554717,6.18113208 107.049057,5.66037736 108.566038,5.66037736 C110.513208,5.66037736 112.120755,6.54339623 113.026415,7.96981132 C114.067925,6.2490566 115.833962,5.66037736 117.6,5.66037736 Z M66.8377358,2.63788991e-12 C67.8113208,2.63788991e-12 68.3773585,1.13207547 67.7433962,1.90188679 L67.7433962,1.90188679 L56.7169811,15.9396226 L63.2603774,15.9396226 C65.2301887,15.9396226 66.8377358,17.5471698 66.8377358,19.5169811 L66.8377358,19.5169811 L51.5773585,19.5169811 C50.6037736,19.5169811 50.0377358,18.3849057 50.6490566,17.6150943 L50.6490566,17.6150943 L61.6754717,3.57735849 L51.5773585,3.57735849 L51.582335,3.38790429 C51.6814482,1.50550723 53.248448,2.63788991e-12 55.154717,2.63788991e-12 L55.154717,2.63788991e-12 Z M163.267925,5.61509434 C164.083019,5.63773585 164.69434,5.72830189 165.192453,5.90943396 L164.649057,9.53207547 C164.060377,9.26037736 163.177358,9.10188679 162.45283,9.10188679 C160.754717,9.10188679 159.6,10.1433962 159.6,12.1358491 L159.6,19.4943396 L157.358491,19.4943396 C156.588679,19.4943396 155.954717,18.8603774 155.954717,18.090566 L155.954717,5.97735849 L158.060377,5.97735849 C158.830189,5.97735849 159.464151,6.61132075 159.464151,7.38113208 L159.464151,7.4490566 C160.324528,6.18113208 161.615094,5.61509434 163.267925,5.61509434 Z M75.3283019,9.03396226 C73.290566,9.03396226 71.7509434,10.5735849 71.7509434,12.7471698 C71.7509434,14.9433962 73.290566,16.4603774 75.3283019,16.4603774 C77.3660377,16.4603774 78.9283019,14.9207547 78.9283019,12.7471698 C78.9283019,10.5509434 77.3886792,9.03396226 75.3283019,9.03396226 Z M91.4037736,9.03396226 C89.3433962,9.03396226 87.8264151,10.5735849 87.8264151,12.7471698 C87.8264151,14.9433962 89.3660377,16.4603774 91.4037736,16.4603774 C93.4415094,16.4603774 95.0037736,14.9207547 95.0037736,12.7471698 C95.0037736,10.5509434 93.4641509,9.03396226 91.4037736,9.03396226 Z M145.743396,9.03396226 C143.592453,9.03396226 142.256604,10.6867925 142.256604,12.7471698 C142.256604,14.8075472 143.615094,16.4603774 145.743396,16.4603774 C147.826415,16.4603774 149.230189,14.8754717 149.230189,12.7471698 C149.230189,10.6188679 147.826415,9.03396226 145.743396,9.03396226 Z M17.6603774,7.13207547 L14.5132075,10.2113208 C14.0150943,10.709434 13.3132075,11.0037736 12.5886792,11.0037736 L12.5886792,11.0037736 L2.83018868,11.0037736 C3.30566038,8.98867925 5.54716981,7.10943396 7.69811321,7.13207547 L7.69811321,7.13207547 L17.6603774,7.13207547 Z M24.6339623,0.135849057 L21.4867925,3.21509434 C20.9886792,3.71320755 20.2867925,4.00754717 19.5622642,4.00754717 L19.5622642,4.00754717 L-2.01438866e-12,4.00754717 C0.475471698,2.01509434 2.71698113,0.135849057 4.86792453,0.135849057 L4.86792453,0.135849057 L24.6339623,0.135849057 Z" id="Combined-Shape" fill="#1F1F1F" fill-rule="nonzero"></path>
            <g id="Group" transform="translate(55.471698, 26.264151)"></g>
        </g>
    </g>
</svg>