<svg height="23px" id="artwork" viewBox="0 0 23.09 25.72" width="23px" xmlns:xlink="http://www.w3.org/1999/xlink" xmlns="http://www.w3.org/2000/svg">
<defs>
<style>.cls-1{fill:url(#linear-gradient);}.cls-2{fill:url(#linear-gradient-2);}.cls-3{fill:url(#linear-gradient-3);}.cls-4{fill:url(#linear-gradient-4);}.cls-5{opacity:0.2;}.cls-5,.cls-6,.cls-7{isolation:isolate;}.cls-6{opacity:0.12;}.cls-7{fill:#fff;opacity:0.25;}</style>
<linearGradient gradientTransform="matrix(1, 0, 0, -1, 0, 171.75)" gradientUnits="userSpaceOnUse" id="linear-gradient" x1="14.42" x2="-2.36" y1="168.17" y2="151.38">
<stop offset="0" stop-color="#00a0ff"></stop>
<stop offset="0.01" stop-color="#00a1ff"></stop>
<stop offset="0.26" stop-color="#00beff"></stop>
<stop offset="0.51" stop-color="#00d2ff"></stop>
<stop offset="0.76" stop-color="#00dfff"></stop>
<stop offset="1" stop-color="#00e3ff"></stop>
</linearGradient>
<linearGradient gradientTransform="matrix(1, 0, 0, -1, 0, 171.75)" gradientUnits="userSpaceOnUse" id="linear-gradient-2" x1="26.46" x2="2.26" y1="156.87" y2="156.87">
<stop offset="0" stop-color="#ffe000"></stop>
<stop offset="0.41" stop-color="#ffbd00"></stop>
<stop offset="0.78" stop-color="orange"></stop>
<stop offset="1" stop-color="#ff9c00"></stop>
</linearGradient>
<linearGradient gradientTransform="matrix(1, 0, 0, -1, 0, 171.75)" gradientUnits="userSpaceOnUse" id="linear-gradient-3" x1="17.45" x2="-5.31" y1="154.58" y2="131.82">
<stop offset="0" stop-color="#ff3a44"></stop>
<stop offset="1" stop-color="#c31162"></stop>
</linearGradient>
<linearGradient gradientTransform="matrix(1, 0, 0, -1, 0, 171.75)" gradientUnits="userSpaceOnUse" id="linear-gradient-4" x1="-0.08" x2="10.08" y1="176.7" y2="166.54">
<stop offset="0" stop-color="#32a071"></stop>
<stop offset="0.07" stop-color="#2da771"></stop>
<stop offset="0.48" stop-color="#15cf74"></stop>
<stop offset="0.8" stop-color="#06e775"></stop>
<stop offset="1" stop-color="#00f076"></stop>
</linearGradient>
</defs>
<title>ic_googlePlay3</title>
<path class="cls-1" d="M3.06,2.41a2,2,0,0,0-.46,1.4V25.93a2,2,0,0,0,.46,1.4l.07.07L15.52,15v-.29L3.13,2.34Z" transform="translate(-2.6 -2.02)"></path>
<path class="cls-2" d="M19.65,19.15,15.52,15v-.29l4.13-4.13.09.05,4.89,2.78c1.4.79,1.4,2.09,0,2.89L19.75,19.1Z" transform="translate(-2.6 -2.02)"></path>
<path class="cls-3" d="M19.75,19.1l-4.22-4.22L3.06,27.34a1.63,1.63,0,0,0,2.08.06l14.61-8.3" transform="translate(-2.6 -2.02)"></path>
<path class="cls-4" d="M19.75,10.65,5.14,2.35a1.63,1.63,0,0,0-2.08.06L15.52,14.88Z" transform="translate(-2.6 -2.02)"></path>
<path class="cls-5" d="M19.65,19,5.14,27.25a1.67,1.67,0,0,1-2,0h0l-.07.07h0l.07.07h0a1.66,1.66,0,0,0,2,0l14.61-8.3Z" transform="translate(-2.6 -2.02)"></path>
<path class="cls-6" d="M3.06,27.19a2,2,0,0,1-.46-1.4v.15a2,2,0,0,0,.46,1.4l.07-.07Z" transform="translate(-2.6 -2.02)"></path>
<path class="cls-6" d="M24.64,16.17l-5,2.83.09.09,4.89-2.78a1.75,1.75,0,0,0,1-1.44h0A1.86,1.86,0,0,1,24.64,16.17Z" transform="translate(-2.6 -2.02)"></path>
<path class="cls-7" d="M5.14,2.5l19.5,11.08a1.86,1.86,0,0,1,1,1.3h0a1.75,1.75,0,0,0-1-1.44L5.14,2.35C3.74,1.56,2.6,2.22,2.6,3.82V4C2.6,2.36,3.74,1.7,5.14,2.5Z" transform="translate(-2.6 -2.02)"></path>
</svg>
