<?xml version="1.0" encoding="utf-8"?>
<!-- Generator: Adobe Illustrator 21.0.0, SVG Export Plug-In . SVG Version: 6.00 Build 0)  -->
<svg version="1.1" id="Layer_1" xmlns="http://www.w3.org/2000/svg" xmlns:xlink="http://www.w3.org/1999/xlink" x="0px" y="0px"
	 viewBox="0 0 371 73" style="enable-background:new 0 0 371 73;" xml:space="preserve">
<style type="text/css">
	.st0{fill:#33414F;stroke:#FFFFFF;stroke-width:0.5135;}
	.st1{fill:#FFFFFF;}
	.st2{fill:none;stroke:#33414F;stroke-width:2;}
	.st3{fill:#EDEDF0;}
	.st4{fill:#B6D5A4;stroke:#33414F;stroke-width:2;}
	.st5{fill:#33414F;}
	.st6{fill:#B6D5A4;}
	.st7{fill:#3D3F47;}
	.st8{opacity:9.000000e-02;clip-path:url(#path-1_6_);fill:#3D3F47;enable-background:new    ;}
	.st9{fill:none;}
	.st10{opacity:9.000000e-02;clip-path:url(#path-1_7_);fill:#3D3F47;enable-background:new    ;}
</style>
<path id="Stroke-1_1_" class="st0" d="M2.9,10.2v25.2c0,0-2.6,22.7,28.5,35.3c0,0,24.6-9.2,27.6-34.9V10.2c0-2.3-1.6-4.3-3.9-4.8
	L39.6,2C33.9,0.7,28,0.7,22.2,2L6.9,5.3C4.5,5.8,2.9,7.9,2.9,10.2L2.9,10.2z"/>
<g id="Mask_1_">
	<path id="path-1_3_" class="st1" d="M7.1,16.1v20.2c0,0-2.2,19.4,24.4,30.2c0,0,21-7.8,23.6-29.8v-23c0-2-1.4-3.8-3.4-4.2l-8.1-2.1
		c-8.7-2.5-16.5-2.4-25.2,0L12.7,9C9.4,9.7,7.1,12.7,7.1,16.1L7.1,16.1z"/>
</g>
<g>
	<path id="path-1_2_" class="st1" d="M7.1,16.1v20.2c0,0-2.2,19.4,24.4,30.2c0,0,21-7.8,23.6-29.8v-23c0-2-1.4-3.8-3.4-4.2l-8.1-2.1
		c-8.7-2.5-16.5-2.4-25.2,0L12.7,9C9.4,9.7,7.1,12.7,7.1,16.1L7.1,16.1z"/>
</g>
<polyline id="Stroke-1" class="st2" points="106.7,29.7 106.7,21.9 130.5,21.9 130.5,59.5 125.2,59.5 "/>
<path id="Fill-2" class="st3" d="M106.9,28h23.6H106.9z"/>
<path id="Stroke-3" class="st2" d="M106.9,28h23.6"/>
<path id="Fill-4" class="st3" d="M121.5,34.3h9H121.5z"/>
<path id="Stroke-5" class="st2" d="M121.5,34.3h9"/>
<path id="Fill-6" class="st3" d="M126.7,40.6h3.8H126.7z"/>
<path id="Stroke-7" class="st2" d="M126.7,40.6h3.8"/>
<path id="Fill-8" class="st3" d="M128.2,46.4h2.2H128.2z"/>
<path id="Stroke-9" class="st2" d="M128.2,46.4h2.2"/>
<path id="Fill-10" class="st3" d="M127.7,53.2h2.7H127.7z"/>
<path id="Stroke-11" class="st2" d="M127.7,53.2h2.7"/>
<path id="Stroke-12" class="st4" d="M125.5,46.8c0,7.1-5.7,12.8-12.7,12.8s-12.7-5.7-12.7-12.8S105.7,34,112.7,34
	C119.8,34,125.5,39.7,125.5,46.8L125.5,46.8L125.5,46.8z"/>
<polyline id="Stroke-14" class="st2" points="125.6,19.8 125.6,8.1 145.9,8.1 145.9,31.3 "/>
<path id="Fill-16" class="st3" d="M125.8,13.4H146"/>
<path id="Stroke-18" class="st2" d="M125.8,13.4H146"/>
<path id="Fill-20" class="st3" d="M125.8,18.8H146"/>
<path id="Stroke-22" class="st2" d="M125.8,18.8H146"/>
<path id="Fill-24" class="st3" d="M134.7,24.2H146"/>
<path id="Stroke-26" class="st2" d="M134.7,24.2H146"/>
<path id="Fill-28" class="st3" d="M134.7,29.1H146"/>
<path id="Stroke-30" class="st2" d="M134.7,29.1H146"/>
<path id="Fill-32" class="st3" d="M134.7,34.5h5.9"/>
<path id="Stroke-34" class="st2" d="M134.7,34.5h5.9"/>
<path id="Stroke-34_1_" class="st2" d="M135.1,40.2h5.9"/>
<polyline id="Stroke-36" class="st2" points="144.3,59.2 144.3,34.1 164.6,34.1 164.6,54.2 "/>
<path id="Fill-38" class="st3" d="M144.5,39.4h20.2"/>
<path id="Stroke-40" class="st2" d="M144.5,39.4h20.2"/>
<path id="Stroke-46" class="st2" d="M143.6,44.8h21"/>
<path id="Fill-48" class="st3" d="M159.6,50.6h5"/>
<path id="Stroke-50" class="st2" d="M144.5,50.6h20.2"/>
<path id="Stroke-50_1_" class="st2" d="M144.8,56.4h16.8"/>
<path id="Fill-54" class="st5" d="M117.9,42.9c-0.1-0.1-0.2-0.1-0.3-0.1h-1.9c-0.1-0.6-0.4-1.2-0.7-1.6h2.6c0.1,0,0.2,0,0.3-0.1
	s0.1-0.2,0.1-0.3v-1.2c0-0.1,0-0.2-0.1-0.3s-0.2-0.1-0.3-0.1h-9.4c-0.1,0-0.2,0-0.3,0.1c-0.1,0.1-0.1,0.2-0.1,0.3v1.5
	c0,0.1,0,0.2,0.1,0.3s0.2,0.1,0.3,0.1h1.6c1.6,0,2.6,0.4,3,1.3h-4.7c-0.1,0-0.2,0-0.3,0.1s-0.1,0.2-0.1,0.3v1.2c0,0.1,0,0.2,0.1,0.3
	s0.2,0.1,0.3,0.1h4.8c-0.2,0.6-0.6,1.1-1.2,1.4c-0.6,0.3-1.4,0.5-2.4,0.5H108c-0.1,0-0.2,0-0.3,0.1c-0.1,0.1-0.1,0.2-0.1,0.3v1.5
	c0,0.1,0,0.2,0.1,0.3c1.5,1.6,3.3,3.7,5.7,6.5c0.1,0.1,0.2,0.1,0.3,0.1h2.2c0.2,0,0.3-0.1,0.3-0.2c0.1-0.1,0.1-0.3,0-0.4
	c-2.2-2.7-3.9-4.8-5.2-6.1c1.3-0.2,2.3-0.6,3.1-1.3c0.8-0.7,1.3-1.6,1.5-2.7h1.9c0.1,0,0.2,0,0.3-0.1c0.1-0.1,0.1-0.2,0.1-0.3v-1.2
	C118,43,118,42.9,117.9,42.9"/>
<rect id="Rectangle-68" x="95.8" y="49" transform="matrix(0.6561 -0.7547 0.7547 0.6561 0.9674 102.033)" class="st1" width="33.3" height="1.9"/>
<rect id="Rectangle-68_1_" x="96.7" y="46.4" transform="matrix(0.6561 -0.7547 0.7547 0.6561 2.9266 101.2033)" class="st5" width="31.6" height="1.9"/>
<path id="Fill-1" class="st6" d="M263.9,41.5h-35c-3.4,0-6.1-2.8-6.1-6.2V12.9c0-3.4,2.8-6.2,6.1-6.2h35c3.4,0,6.1,2.8,6.1,6.2v22.5
	C270,38.8,267.2,41.5,263.9,41.5"/>
<path id="Stroke-3_1_" class="st2" d="M263.2,41.4h-35c-3.4,0-6.1-2.8-6.1-6.2V12.7c0-3.4,2.8-6.2,6.1-6.2h35c3.4,0,6.1,2.8,6.1,6.2
	v22.5C269.3,38.6,266.5,41.4,263.2,41.4L263.2,41.4L263.2,41.4z"/>
<path id="Fill-5" class="st3" d="M238.6,34.1l0.1,6.1c0,1.5-4.7,2.7-10.5,2.7s-10.5-1.2-10.5-2.7v-6.3"/>
<path id="Stroke-7_1_" class="st2" d="M238.6,34.1l0.1,6.1c0,1.5-4.7,2.7-10.5,2.7s-10.5-1.2-10.5-2.7v-6.3"/>
<path id="Fill-9" class="st3" d="M238.7,34.5c0,1.5-4.7,2.7-10.5,2.7s-10.5-1.2-10.5-2.7s4.7-2.7,10.5-2.7S238.7,33,238.7,34.5"/>
<path id="Stroke-11_1_" class="st2" d="M238.7,34.5c0,1.5-4.7,2.7-10.5,2.7s-10.5-1.2-10.5-2.7s4.7-2.7,10.5-2.7
	S238.7,33,238.7,34.5L238.7,34.5L238.7,34.5z"/>
<path id="Fill-13" class="st3" d="M222.8,36.9v5.7"/>
<path id="Stroke-15" class="st2" d="M222.8,36.9v5.7"/>
<path id="Fill-17" class="st3" d="M228.2,37.2v5.7"/>
<path id="Stroke-19" class="st2" d="M228.2,37.2v5.7"/>
<path id="Fill-21" class="st3" d="M233,36.9v5.7"/>
<path id="Stroke-23" class="st2" d="M233,36.9v5.7"/>
<path id="Stroke-25" class="st2" d="M222.6,43.8c-0.8,0.1-1.2,0.1-2.1,0.1c-5.8,0-10.5-1.2-10.5-2.7c0-1.1,2.4-2,5.8-2.4"/>
<path id="Stroke-27" class="st2" d="M230.9,44.4l0.1,2.5c0,1.5-4.7,2.7-10.5,2.7S210,48.4,210,46.9v-6.3"/>
<path id="Fill-29" class="st3" d="M215.1,43.5v5.7"/>
<path id="Stroke-31" class="st2" d="M215.1,43.5v5.7"/>
<path id="Fill-33" class="st3" d="M220.5,43.9v5.7"/>
<path id="Stroke-35" class="st2" d="M220.5,43.9v5.7"/>
<path id="Fill-37" class="st3" d="M225.3,45.1v4.2"/>
<path id="Stroke-39" class="st2" d="M225.3,45.1v4.2"/>
<path id="Stroke-41" class="st2" d="M232.5,45.5c1.9,0.5,3.1,1.2,3.1,1.9c0,1.3-3.5,2.3-8.1,2.6"/>
<path id="Stroke-43" class="st2" d="M235.5,47l0.1,6.1c0,1.5-4.7,2.7-10.5,2.7s-10.5-1.2-10.5-2.7v-2.2"/>
<path id="Stroke-45" class="st2" d="M219.7,51.2v4.1"/>
<path id="Fill-47" class="st3" d="M225.1,51.1v4.6"/>
<path id="Stroke-49" class="st2" d="M225.1,51.1v4.6"/>
<path id="Fill-51" class="st3" d="M229.9,49.7v5.7"/>
<path id="Stroke-53" class="st2" d="M229.9,49.7v5.7"/>
<path id="Stroke-55" class="st2" d="M217.2,56c-3.6-0.4-6.2-1.4-6.2-2.5c0-0.6,0.8-1.2,2.1-1.6"/>
<path id="Stroke-57" class="st2" d="M231.9,56.2l0.1,3c0,1.5-4.7,2.7-10.5,2.7S211,60.7,211,59.2v-6.3"/>
<path id="Fill-59" class="st3" d="M216.2,55.9v5.7"/>
<path id="Stroke-61" class="st2" d="M216.2,55.9v5.7"/>
<path id="Stroke-63" class="st2" d="M221.5,56.8v5.1"/>
<path id="Fill-65" class="st3" d="M226.3,56.9v4.7"/>
<path id="Stroke-67" class="st2" d="M226.3,56.9v4.7"/>
<path id="Fill-69" class="st3" d="M230.5,16h17.2"/>
<path id="Stroke-71" class="st2" d="M230.5,16h17.2"/>
<path id="Fill-73" class="st3" d="M230.5,21.2h17.2"/>
<path id="Stroke-75" class="st2" d="M230.5,21.2h17.2"/>
<path id="Fill-77" class="st3" d="M230.5,26.3h17.2"/>
<path id="Stroke-79" class="st2" d="M230.5,26.3h17.2"/>
<path id="Fill-81" class="st3" d="M230.5,31.4h10.1"/>
<path id="Stroke-83" class="st2" d="M230.5,31.4h10.1"/>
<path id="Fill-85" class="st5" d="M261.5,20.6c-0.1-0.1-0.1-0.1-0.2-0.1h-1.8c-0.1-0.6-0.4-1.1-0.7-1.6h2.5c0.1,0,0.2,0,0.2-0.1
	c0.1-0.1,0.1-0.1,0.1-0.2v-1.1c0-0.1,0-0.2-0.1-0.2c-0.1-0.1-0.1-0.1-0.2-0.1h-9c-0.1,0-0.2,0-0.2,0.1c-0.1,0.1-0.1,0.1-0.1,0.2v1.4
	c0,0.1,0,0.2,0.1,0.2c0.1,0.1,0.1,0.1,0.2,0.1h1.6c1.5,0,2.5,0.4,2.9,1.2h-4.5c-0.1,0-0.2,0-0.2,0.1c-0.1,0.1-0.1,0.1-0.1,0.2v1.1
	c0,0.1,0,0.2,0.1,0.2c0.1,0.1,0.1,0.1,0.2,0.1h4.6c-0.2,0.6-0.5,1-1.1,1.4c-0.6,0.3-1.3,0.5-2.3,0.5h-1.2c-0.1,0-0.2,0-0.2,0.1
	c-0.1,0.1-0.1,0.2-0.1,0.2v1.4c0,0.1,0,0.2,0.1,0.2c1.4,1.5,3.2,3.5,5.4,6.2c0.1,0.1,0.2,0.1,0.3,0.1h2.1c0.2,0,0.3-0.1,0.3-0.2
	c0.1-0.1,0.1-0.3,0-0.4c-2.1-2.6-3.8-4.5-5-5.8c1.2-0.1,2.2-0.5,3-1.2s1.2-1.5,1.4-2.5h1.8c0.1,0,0.2,0,0.2-0.1
	c0.1-0.1,0.1-0.1,0.1-0.2v-1.1C261.6,20.7,261.6,20.7,261.5,20.6"/>
<path id="Oval-1406" class="st4" d="M332.5,32c1.3,4.7,5.1,8,9.5,8s8.3-3.4,9.5-8c1.4-0.3,2.5-1.5,2.5-3c0-1.4-0.9-2.6-2.2-2.9
	c-1-5.2-5-9.1-9.8-9.1s-8.8,3.9-9.8,9.1c-1.3,0.3-2.2,1.5-2.2,2.9C330,30.5,331.1,31.7,332.5,32L332.5,32z"/>
<circle id="Oval-1415" class="st2" cx="342" cy="34" r="28"/>
<path id="Line" class="st2" d="M370,34h-7"/>
<path id="Line_1_" class="st2" d="M342,6v6"/>
<path id="Line_2_" class="st2" d="M342,56v6"/>
<path id="Line_3_" class="st2" d="M321,34h-7"/>
<path id="Oval-1404" class="st4" d="M353,51c0-6.1-4.9-11-11-11s-11,4.9-11,11H353L353,51z"/>
<g id="Group-4" transform="translate(6.675676, 8.654545)">
	<path id="Fill-1_1_" class="st7" d="M13,16.7h11.9c0.4,0,0.9-0.2,1.2-0.5l1.9-1.9H16C14.7,14.3,13.3,15.5,13,16.7"/>
	<path id="Fill-4_1_" class="st7" d="M14.7,20.9h5.9c0.4,0,0.9-0.2,1.2-0.5l1.9-1.9h-6C16.4,18.6,15,19.7,14.7,20.9"/>
	<path id="Fill-6_1_" class="st7" d="M23.9,29.7l-5.4,5.4l0,0c-0.6,0.6-1.4,1-2.3,1c-1.8,0-3.2-1.4-3.2-3.2s1.4-3.2,3.2-3.2H23.9"/>
	<path id="Fill-8_1_" class="st7" d="M31.6,14.2c-0.9,0-1.8,0.4-2.4,1l-14,14c0.3-0.1,0.6-0.1,1-0.1h8.2l9.4-9.4
		c0.6-0.6,0.9-1.4,0.9-2.3C34.8,15.7,33.3,14.2,31.6,14.2"/>
	<path id="Fill-10_1_" class="st7" d="M24.3,30l-5.4,5.4c0,0-0.5,0.6-0.8,0.6h16.8c-0.3-3.6-3.4-6.4-7.1-6.4h-2.3h-0.9L24.3,30z"/>
</g>
<g>
	<defs>
		<path id="path-1_4_" d="M7.1,16.1v20.2c0,0-2.2,19.4,24.4,30.2c0,0,21-7.8,23.6-29.8v-23c0-2-1.4-3.8-3.4-4.2l-8.1-2.1
			c-8.7-2.5-16.5-2.4-25.2,0L12.7,9C9.4,9.7,7.1,12.7,7.1,16.1L7.1,16.1z"/>
	</defs>
	<clipPath id="path-1_6_">
		<use xlink:href="#path_x002D_1_4_"  style="overflow:visible;"/>
	</clipPath>
	<polygon class="st8" points="20.4,25.2 11.4,46.2 60.4,7.4 	"/>
</g>
<g id="Mask_3_">
	<path id="path-1_5_" class="st9" d="M7.1,16.1v20.2c0,0-2.2,19.4,24.4,30.2c0,0,21-7.8,23.6-29.8v-23c0-2-1.4-3.8-3.4-4.2l-8.1-2.1
		c-8.7-2.5-16.5-2.4-25.2,0L12.7,9C9.4,9.7,7.1,12.7,7.1,16.1L7.1,16.1z"/>
</g>
<g>
	<defs>
		<path id="path-1_1_" d="M7.1,16.1v20.2c0,0-2.2,19.4,24.4,30.2c0,0,21-7.8,23.6-29.8v-23c0-2-1.4-3.8-3.4-4.2l-8.1-2.1
			c-8.7-2.5-16.5-2.4-25.2,0L12.7,9C9.4,9.7,7.1,12.7,7.1,16.1L7.1,16.1z"/>
	</defs>
	<clipPath id="path-1_7_">
		<use xlink:href="#path_x002D_1_1_"  style="overflow:visible;"/>
	</clipPath>
	<polygon class="st10" points="7.2,56.4 -3,82.7 72.2,27.5 	"/>
</g>
</svg>
