<?xml version="1.0" encoding="UTF-8"?>
<svg width="25px" height="25px" viewBox="0 0 25 25" version="1.1" xmlns="http://www.w3.org/2000/svg" xmlns:xlink="http://www.w3.org/1999/xlink">
    <!-- Generator: sketchtool 42 (36781) - http://www.bohemiancoding.com/sketch -->
    <title>20313BBC-E552-4ACD-9875-56588F4E8F9C</title>
    <desc>Created with sketchtool.</desc>
    <defs></defs>
    <g id="Footer" stroke="none" stroke-width="1" fill="none" fill-rule="evenodd" opacity="0.4">
        <g id="footer_V3" transform="translate(-287.000000, -613.000000)" fill="#FFFFFF">
            <g id="Group-4" transform="translate(246.000000, 613.000000)">
                <g id="twitter-(1)" transform="translate(41.000000, 0.000000)">
                    <g id="Capa_1">
                        <g id="Group">
                            <path d="M12.421846,24.8221239 C5.56157217,24.8221239 0.000221427227,19.2655022 0.000221427227,12.4110619 C0.000221427227,5.5566217 5.56157217,0 12.421846,0 C19.2821198,0 24.8434705,5.5566217 24.8434705,12.4110619 C24.8434705,19.2655022 19.2821198,24.8221239 12.421846,24.8221239 Z M20.0305283,8.91946903 C19.4982173,9.15530973 18.9256065,9.31482301 18.3250958,9.38606195 C18.9382278,9.01902655 19.4087607,8.43827434 19.6308522,7.74513274 C19.0571342,8.08517699 18.4214167,8.33185841 17.7453994,8.46482301 C17.2037884,7.88849558 16.4321145,7.52831858 15.5776268,7.52831858 C13.9381796,7.52831858 12.6085091,8.85685841 12.6085091,10.4949115 C12.6085091,10.7274336 12.634859,10.9537611 12.6857872,11.1710177 C10.2182022,11.0473451 8.0302798,9.86637168 6.56576012,8.0710177 C6.3102331,8.5090708 6.16364828,9.01902655 6.16364828,9.56261062 C6.16364828,10.5915929 6.68820938,11.5 7.48446168,12.0318584 C6.99798607,12.0165929 6.53985314,11.8831858 6.13973414,11.6603982 C6.13951271,11.6730088 6.13951271,11.6856195 6.13951271,11.6980088 C6.13951271,13.1353982 7.1633922,14.334292 8.52140539,14.6066372 C8.27252118,14.6747788 8.00968706,14.7108407 7.73932442,14.7108407 C7.54756844,14.7108407 7.361791,14.6924779 7.18066353,14.6579646 C7.55841838,15.8362832 8.65470458,16.6940265 9.95426097,16.7181416 C8.93791,17.5139381 7.6578392,17.9880531 6.26639051,17.9880531 C6.02724911,17.9880531 5.79032197,17.974115 5.55848767,17.9464602 C6.87177255,18.7884956 8.43283449,19.2794248 10.1094815,19.2794248 C15.5707626,19.2794248 18.557373,14.7590708 18.557373,10.8384956 C18.557373,10.7099558 18.5544944,10.5818584 18.5487373,10.4548673 C19.1293195,10.0367257 19.6326236,9.51438053 20.0305283,8.91946903 Z" id="Combined-Shape"></path>
                        </g>
                    </g>
                </g>
            </g>
        </g>
    </g>
</svg>